# xmcd
#
# Track frame offsets:
#	150
#	21631
#	47033
#	69844
#	97510
#	123345
#	147338
#	168131
#	191057
#	220361
#	257192
#	273676
#	299323
#
# Disc length: 4575 seconds
# Revision: 0
# Processed by: cddbd v1.5.2PL0 Copyright (c) Steve Scherf et al.
# Submitted via: dBpowerAMP V12.0
#
DISCID=c511dd0d
DTITLE=Joe Bonamassa - Live At Radio City Music Hall
DYEAR=2015
DGENRE=Blues
TTITLE0=I Can't Be Satisfied
TTITLE1=One Less Cross To Bear
TTITLE2=Living On The Moon
TTITLE3=I Gave Up Everything For You 'Cept The Blues
TTITLE4=Dust Bowl
TTITLE5=Trouble Town
TTITLE6=Still Water
TTITLE7=Different Shades Of Blue
TTITLE8=Happier Times
TTITLE9=Never Give All Your Heart
TTITLE10=Hidden Charms
TTITLE11=Love Ain't A Love Song
TTITLE12=So, What Would I Do
EXTD=
EXTT0=
EXTT1=
EXTT2=
EXTT3=
EXTT4=
EXTT5=
EXTT6=
EXTT7=
EXTT8=
EXTT9=
EXTT10=
EXTT11=
EXTT12=
PLAYORDER=
